<?xml version="1.0" encoding="utf-8"?>
<!-- Generator: Adobe Illustrator 25.2.3, SVG Export Plug-In . SVG Version: 6.00 Build 0)  -->
<svg version="1.1" id="Capa_1" xmlns="http://www.w3.org/2000/svg" xmlns:xlink="http://www.w3.org/1999/xlink" x="0px" y="0px"
	 viewBox="0 0 500 500" style="enable-background:new 0 0 500 500;" xml:space="preserve">
<g>
	<g>
		<path d="M86.1,189.2c-11.6,0-21,9.3-21,20.9v101c0,11.5,9.4,20.9,21,20.9c11.5,0,20.9-9.5,20.9-20.9v-101
			C107,198.5,97.6,189.2,86.1,189.2z"/>
	</g>
	<g>
		<path d="M414,189.2c-11.5,0-20.9,9.3-20.9,20.9v101c0,11.5,9.3,20.9,20.9,20.9c11.5,0,20.9-9.5,20.9-20.9v-101
			C434.9,198.5,425.5,189.2,414,189.2z"/>
	</g>
	<g>
		<path d="M125.7,189.2c0,0.3,0,0.5,0,0.8v186.5c0,17.3,14,31.3,31.3,31.3h33.5v53.1c0,11.5,9.4,21,20.9,21s20.9-9.5,20.9-21v-53.1
			h35.7v53.1c0,11.5,9.4,21,20.9,21c11.6,0,21-9.5,21-21v-53.1h33.5c17.3,0,31.4-14,31.4-31.3V190c0-0.2,0-0.5-0.1-0.8H125.7z"/>
	</g>
	<g>
		<path d="M311,62.3l22.4-41.6l-4.6-2.5l-22.4,41.7c-16.9-8.6-35.9-13.5-56.2-13.5c-19.2,0-37.4,4.4-53.5,12.2l-21.7-40.4l-4.6,2.5
			l21.6,40.2c-38.7,20.9-65,61.4-65.3,108.3h247.3C373.6,123.3,348.3,83.4,311,62.3z M186.5,121.5c-6.5,0-11.8-5.4-11.8-11.7
			c0-6.5,5.3-11.8,11.8-11.8c6.5,0,11.8,5.3,11.8,11.8C198.3,116.1,193,121.5,186.5,121.5z M311.9,121.5c-6.5,0-11.7-5.4-11.7-11.7
			c0-6.5,5.2-11.8,11.7-11.8c6.6,0,11.8,5.3,11.8,11.8C323.6,116.1,318.4,121.5,311.9,121.5z"/>
	</g>
</g>
</svg>
