<?xml version="1.0" encoding="utf-8"?>
<!-- Generator: Adobe Illustrator 25.2.3, SVG Export Plug-In . SVG Version: 6.00 Build 0)  -->
<svg version="1.1" id="Capa_1" xmlns="http://www.w3.org/2000/svg" xmlns:xlink="http://www.w3.org/1999/xlink" x="0px" y="0px"
	 viewBox="0 0 500 500" style="enable-background:new 0 0 500 500;" xml:space="preserve">
<g>
	<path d="M449.3,358.4c-10.9,24.2-16.1,34.9-30.1,56.3c-19.6,29.8-47.2,66.9-81.3,67.2c-30.4,0.3-38.2-19.8-79.4-19.5
		c-41.2,0.2-49.8,19.9-80.2,19.6c-34.2-0.3-60.3-33.8-79.9-63.6C43.6,335,37.9,237.2,71.6,185.2c24-36.9,61.8-58.6,97.4-58.6
		c36.2,0,59,19.9,89,19.9c29.1,0,46.8-19.9,88.7-19.9c31.7,0,65.2,17.2,89.1,47.1C357.5,216.6,370.2,328.5,449.3,358.4z"/>
	<g>
		<path d="M314.9,93.3c15.2-19.5,26.8-47.1,22.6-75.3c-24.9,1.7-53.9,17.5-70.9,38.2c-15.4,18.7-28.1,46.5-23.2,73.5
			C270.5,130.5,298.6,114.3,314.9,93.3z"/>
	</g>
</g>
</svg>
