<?xml version="1.0" encoding="utf-8"?>
<!-- Generator: Adobe Illustrator 25.2.3, SVG Export Plug-In . SVG Version: 6.00 Build 0)  -->
<svg version="1.1" id="Capa_1" xmlns="http://www.w3.org/2000/svg" xmlns:xlink="http://www.w3.org/1999/xlink" x="0px" y="0px"
	 viewBox="0 0 500 500" style="enable-background:new 0 0 500 500;" xml:space="preserve">
<style type="text/css">
	.st0{fill-rule:evenodd;clip-rule:evenodd;}
</style>
<g>
	<path class="st0" d="M416.8,83.2c4.7,4.7,4.7,12.5,0,17.2L351.2,166c-4.7,4.7-12.5,4.7-17.2,0c-4.7-4.7-4.7-12.5,0-17.2l65.6-65.6
		C404.3,78.5,412.1,78.5,416.8,83.2z"/>
	<path class="st0" d="M287.9,29.8c6.7,0,12.2,5.5,12.2,12.2v92.7c0,6.7-5.5,12.2-12.2,12.2s-12.2-5.5-12.2-12.2V42
		C275.7,35.3,281.2,29.8,287.9,29.8L287.9,29.8z"/>
	<path class="st0" d="M159,83.2c4.7-4.7,12.5-4.7,17.2,0l65.6,65.6c4.7,4.7,4.7,12.5,0,17.2c-4.7,4.7-12.5,4.7-17.2,0L159,100.4
		C154.3,95.7,154.3,87.9,159,83.2z"/>
	<path class="st0" d="M416.8,341c-4.7,4.7-12.5,4.7-17.2,0L334,275.4c-4.7-4.7-4.7-12.5,0-17.2c4.7-4.7,12.5-4.7,17.2,0l65.6,65.6
		C421.5,328.5,421.5,336.2,416.8,341z"/>
	<path class="st0" d="M470.2,212.1c0,6.7-5.5,12.2-12.2,12.2h-92.7c-6.7,0-12.2-5.5-12.2-12.2c0-6.7,5.5-12.2,12.2-12.2H458
		C464.7,199.9,470.2,205.4,470.2,212.1L470.2,212.1z"/>
	<path class="st0" d="M305.4,203.5L197.2,450.3c-2.2,4.9-8.9,5.5-11.9,1l-32.5-50.1l-67.1,67.1c-2.6,2.6-6.9,2.6-9.6,0l-44.4-44.4
		c-2.6-2.6-2.6-6.9,0-9.6l67.1-67.1l-50.1-32.5c-4.5-2.9-4-9.7,1-11.9l246.8-108.2C302.1,192.1,307.9,197.9,305.4,203.5L305.4,203.5
		z"/>
</g>
</svg>
