<?xml version="1.0" encoding="utf-8"?>
<!-- Generator: Adobe Illustrator 25.2.3, SVG Export Plug-In . SVG Version: 6.00 Build 0)  -->
<svg version="1.1" id="Capa_1" xmlns="http://www.w3.org/2000/svg" xmlns:xlink="http://www.w3.org/1999/xlink" x="0px" y="0px"
	 viewBox="0 0 500 500" style="enable-background:new 0 0 500 500;" xml:space="preserve">
<path d="M250,34.1C130.9,34.1,34.1,131,34.1,250c0,39.6,10.8,78.2,31.3,111.9l-30.9,92.7c-1,3.1-0.3,6.5,2.1,8.8
	c1.6,1.6,3.9,2.5,6.1,2.5c0.9,0,1.8-0.1,2.8-0.4l92.6-30.8c33.8,20.5,72.4,31.3,111.9,31.3c119.1,0,215.9-96.8,215.9-215.9
	C465.9,131,369.1,34.1,250,34.1z M388.2,337.4c0,7.5-3.1,14.9-8.5,20.3l-22.5,22.2c-5.4,5.4-12.6,8.3-20,8.3h-1.1
	C215.5,383,117,284.5,111.8,164c-0.3-7.9,2.7-15.6,8.3-21.2l22.2-22.5c5.4-5.4,12.8-8.5,20.4-8.5h8.3c11.8,0,22.6,7.4,26.8,18.6
	l19.7,52.2c3.8,10.2,1.5,21.8-6,29.8l-8.1,8.5c-3.7,3.9-4.1,9.8-1.1,14.2c10,14.5,31.4,41.9,62.7,63c4.3,2.8,10.2,2.3,14-1.3
	l8.8-8.3c7.9-7.5,19.5-9.8,29.7-6l52.2,19.7c11.1,4.2,18.6,14.9,18.6,26.8V337.4z"/>
</svg>
